# xmcd CD database file
#
# Track frame offsets:
#	150
#	18461
#	38742
#	54068
#	73742
#	90239
#	109901
#	131974
#	149846
#	168614
#	186091
#	203756
#	222994
#	244210
#	270467
#
# Disc length: 3877 seconds
#
# Revision: 0
# Processed by: cddbd v1.5.2PL0 Copyright (c) Steve Scherf et al.
# Submitted via: CDex 1.96
#
DISCID=e00f230f
DTITLE=Various Jazz Artists - Smooth Side Of Jazz   (2011)
DYEAR=2011
DGENRE=Jazz
TTITLE0=Candy Dulfer - First In Line
TTITLE1=Pieces Of A Dream - Step On It
TTITLE2=Mindi Abair - Get Right
TTITLE3=Chuck Loeb - Oh No You Didn't
TTITLE4=Najee - Love You A Lifetime
TTITLE5=George Duke - A Melody
TTITLE6=Marion Meadows - Friends
TTITLE7=Jeff  Lorber Fusion - Sugar Free
TTITLE8=Jessy J - Remember The Night
TTITLE9=Walter Beasley - Steady As She Goes
TTITLE10=David Benoit - Botswana Bossa Nova
TTITLE11=Stanley Clearke - I Wanna Play For You Too
TTITLE12=Joe McBride - Crazy
TTITLE13=Fourplay - Pineapple Getaway
TTITLE14=Zap Mama - Paroles Paroles
EXTD=YEAR: 2011
EXTT0=
EXTT1=
EXTT2=
EXTT3=
EXTT4=
EXTT5=
EXTT6=
EXTT7=
EXTT8=
EXTT9=
EXTT10=
EXTT11=
EXTT12=
EXTT13=
EXTT14=
PLAYORDER=
